<mxfile host="app.diagrams.net" agent="Mozilla/5.0 (Windows NT 10.0; Win64; x64) AppleWebKit/537.36 (KHTML, like Gecko) Chrome/128.0.0.0 Safari/537.36" version="24.7.14">
  <diagram name="Trang-1" id="khWtdPV8oA9I_oXeie01">
    <mxGraphModel dx="1195" dy="683" grid="1" gridSize="10" guides="1" tooltips="1" connect="1" arrows="1" fold="1" page="1" pageScale="1" pageWidth="827" pageHeight="1169" math="0" shadow="0">
      <root>
        <mxCell id="0" />
        <mxCell id="1" parent="0" />
        <mxCell id="3zwWWlvh37f6roZIKE7P-1" value="&#xa;&lt;span style=&quot;color: rgb(31, 31, 31); font-family: &amp;quot;Google Sans&amp;quot;, Roboto, sans-serif; font-size: 12px; font-style: normal; font-variant-ligatures: normal; font-variant-caps: normal; font-weight: 400; letter-spacing: normal; orphans: 2; text-align: start; text-indent: 0px; text-transform: none; widows: 2; word-spacing: 0px; -webkit-text-stroke-width: 0px; white-space: pre-wrap; background-color: rgb(255, 255, 255); text-decoration-thickness: initial; text-decoration-style: initial; text-decoration-color: initial; display: inline !important; float: none;&quot;&gt;Koi Delivery Ordering System&lt;/span&gt;&lt;br style=&quot;color: rgb(31, 31, 31); font-family: &amp;quot;Google Sans&amp;quot;, Roboto, sans-serif; font-size: 12px; font-style: normal; font-variant-ligatures: normal; font-variant-caps: normal; font-weight: 400; letter-spacing: normal; orphans: 2; text-align: start; text-indent: 0px; text-transform: none; widows: 2; word-spacing: 0px; -webkit-text-stroke-width: 0px; white-space: pre-wrap; text-decoration-thickness: initial; text-decoration-style: initial; text-decoration-color: initial;&quot;&gt;&#xa;&#xa;" style="ellipse;whiteSpace=wrap;html=1;" vertex="1" parent="1">
          <mxGeometry x="340" y="390" width="140" height="90" as="geometry" />
        </mxCell>
        <mxCell id="3zwWWlvh37f6roZIKE7P-2" value="&#xa;Guest&#xa;&#xa;" style="rounded=0;whiteSpace=wrap;html=1;" vertex="1" parent="1">
          <mxGeometry x="354" y="140" width="120" height="60" as="geometry" />
        </mxCell>
        <mxCell id="3zwWWlvh37f6roZIKE7P-3" value="&#xa;Customer&#xa;&#xa;" style="rounded=0;whiteSpace=wrap;html=1;" vertex="1" parent="1">
          <mxGeometry x="707" y="370" width="120" height="60" as="geometry" />
        </mxCell>
        <mxCell id="3zwWWlvh37f6roZIKE7P-4" value="Healthe" style="rounded=0;whiteSpace=wrap;html=1;" vertex="1" parent="1">
          <mxGeometry x="10" y="370" width="120" height="60" as="geometry" />
        </mxCell>
        <mxCell id="3zwWWlvh37f6roZIKE7P-5" value="&#xa;Delivering Staff&#xa;&#xa;" style="rounded=0;whiteSpace=wrap;html=1;" vertex="1" parent="1">
          <mxGeometry x="120" y="670" width="120" height="60" as="geometry" />
        </mxCell>
        <mxCell id="3zwWWlvh37f6roZIKE7P-6" value="&#xa;Manager&#xa;&#xa;" style="rounded=0;whiteSpace=wrap;html=1;" vertex="1" parent="1">
          <mxGeometry x="587" y="670" width="120" height="60" as="geometry" />
        </mxCell>
        <mxCell id="3zwWWlvh37f6roZIKE7P-7" value="" style="endArrow=classic;html=1;rounded=0;exitX=1;exitY=0.25;exitDx=0;exitDy=0;entryX=0.042;entryY=0.342;entryDx=0;entryDy=0;entryPerimeter=0;" edge="1" parent="1" source="3zwWWlvh37f6roZIKE7P-4" target="3zwWWlvh37f6roZIKE7P-1">
          <mxGeometry width="50" height="50" relative="1" as="geometry">
            <mxPoint x="400" y="400" as="sourcePoint" />
            <mxPoint x="450" y="350" as="targetPoint" />
          </mxGeometry>
        </mxCell>
        <mxCell id="3zwWWlvh37f6roZIKE7P-8" value="" style="endArrow=classic;html=1;rounded=0;exitX=0.017;exitY=0.682;exitDx=0;exitDy=0;exitPerimeter=0;entryX=1;entryY=0.75;entryDx=0;entryDy=0;" edge="1" parent="1" source="3zwWWlvh37f6roZIKE7P-1" target="3zwWWlvh37f6roZIKE7P-4">
          <mxGeometry width="50" height="50" relative="1" as="geometry">
            <mxPoint x="400" y="400" as="sourcePoint" />
            <mxPoint x="450" y="350" as="targetPoint" />
          </mxGeometry>
        </mxCell>
        <mxCell id="3zwWWlvh37f6roZIKE7P-9" value="" style="endArrow=classic;html=1;rounded=0;exitX=0.295;exitY=0.029;exitDx=0;exitDy=0;exitPerimeter=0;entryX=0.25;entryY=1;entryDx=0;entryDy=0;" edge="1" parent="1" source="3zwWWlvh37f6roZIKE7P-1" target="3zwWWlvh37f6roZIKE7P-2">
          <mxGeometry width="50" height="50" relative="1" as="geometry">
            <mxPoint x="530" y="360" as="sourcePoint" />
            <mxPoint x="580" y="310" as="targetPoint" />
          </mxGeometry>
        </mxCell>
        <mxCell id="3zwWWlvh37f6roZIKE7P-10" value="" style="endArrow=classic;html=1;rounded=0;entryX=0.742;entryY=0.07;entryDx=0;entryDy=0;entryPerimeter=0;exitX=0.75;exitY=1;exitDx=0;exitDy=0;" edge="1" parent="1" source="3zwWWlvh37f6roZIKE7P-2" target="3zwWWlvh37f6roZIKE7P-1">
          <mxGeometry width="50" height="50" relative="1" as="geometry">
            <mxPoint x="442" y="310" as="sourcePoint" />
            <mxPoint x="450" y="350" as="targetPoint" />
          </mxGeometry>
        </mxCell>
        <mxCell id="3zwWWlvh37f6roZIKE7P-11" value="" style="endArrow=classic;html=1;rounded=0;exitX=1;exitY=0.333;exitDx=0;exitDy=0;entryX=0;entryY=0.25;entryDx=0;entryDy=0;exitPerimeter=0;" edge="1" parent="1" source="3zwWWlvh37f6roZIKE7P-1" target="3zwWWlvh37f6roZIKE7P-3">
          <mxGeometry width="50" height="50" relative="1" as="geometry">
            <mxPoint x="400" y="400" as="sourcePoint" />
            <mxPoint x="450" y="350" as="targetPoint" />
          </mxGeometry>
        </mxCell>
        <mxCell id="3zwWWlvh37f6roZIKE7P-12" value="" style="endArrow=classic;html=1;rounded=0;exitX=0.25;exitY=0;exitDx=0;exitDy=0;entryX=0;entryY=1;entryDx=0;entryDy=0;" edge="1" parent="1" source="3zwWWlvh37f6roZIKE7P-5" target="3zwWWlvh37f6roZIKE7P-1">
          <mxGeometry width="50" height="50" relative="1" as="geometry">
            <mxPoint x="400" y="400" as="sourcePoint" />
            <mxPoint x="450" y="350" as="targetPoint" />
          </mxGeometry>
        </mxCell>
        <mxCell id="3zwWWlvh37f6roZIKE7P-13" value="" style="endArrow=classic;html=1;rounded=0;exitX=0.379;exitY=0.996;exitDx=0;exitDy=0;exitPerimeter=0;entryX=0.75;entryY=0;entryDx=0;entryDy=0;" edge="1" parent="1" source="3zwWWlvh37f6roZIKE7P-1" target="3zwWWlvh37f6roZIKE7P-5">
          <mxGeometry width="50" height="50" relative="1" as="geometry">
            <mxPoint x="400" y="400" as="sourcePoint" />
            <mxPoint x="450" y="350" as="targetPoint" />
          </mxGeometry>
        </mxCell>
        <mxCell id="3zwWWlvh37f6roZIKE7P-14" value="" style="endArrow=classic;html=1;rounded=0;exitX=1;exitY=1;exitDx=0;exitDy=0;entryX=0.75;entryY=0;entryDx=0;entryDy=0;" edge="1" parent="1" source="3zwWWlvh37f6roZIKE7P-1" target="3zwWWlvh37f6roZIKE7P-6">
          <mxGeometry width="50" height="50" relative="1" as="geometry">
            <mxPoint x="400" y="400" as="sourcePoint" />
            <mxPoint x="450" y="350" as="targetPoint" />
          </mxGeometry>
        </mxCell>
        <mxCell id="3zwWWlvh37f6roZIKE7P-15" value="" style="endArrow=classic;html=1;rounded=0;exitX=0.25;exitY=0;exitDx=0;exitDy=0;entryX=0.656;entryY=0.97;entryDx=0;entryDy=0;entryPerimeter=0;" edge="1" parent="1" source="3zwWWlvh37f6roZIKE7P-6" target="3zwWWlvh37f6roZIKE7P-1">
          <mxGeometry width="50" height="50" relative="1" as="geometry">
            <mxPoint x="400" y="400" as="sourcePoint" />
            <mxPoint x="450" y="350" as="targetPoint" />
          </mxGeometry>
        </mxCell>
        <mxCell id="3zwWWlvh37f6roZIKE7P-16" value="" style="endArrow=classic;html=1;rounded=0;exitX=0;exitY=0.75;exitDx=0;exitDy=0;entryX=0.97;entryY=0.694;entryDx=0;entryDy=0;entryPerimeter=0;" edge="1" parent="1" source="3zwWWlvh37f6roZIKE7P-3" target="3zwWWlvh37f6roZIKE7P-1">
          <mxGeometry width="50" height="50" relative="1" as="geometry">
            <mxPoint x="400" y="400" as="sourcePoint" />
            <mxPoint x="710" y="520" as="targetPoint" />
          </mxGeometry>
        </mxCell>
        <mxCell id="3zwWWlvh37f6roZIKE7P-17" value="-&amp;nbsp;Service Information Request&lt;div&gt;- Price List Request&lt;/div&gt;&lt;div&gt;-&amp;nbsp;FAQ Request&lt;/div&gt;" style="text;html=1;align=left;verticalAlign=middle;resizable=0;points=[];autosize=1;strokeColor=none;fillColor=none;" vertex="1" parent="1">
          <mxGeometry x="450" y="220" width="180" height="60" as="geometry" />
        </mxCell>
        <mxCell id="3zwWWlvh37f6roZIKE7P-18" value="-&amp;nbsp;Service Information&lt;div&gt;-&amp;nbsp;FAQ Data&lt;/div&gt;&lt;div&gt;-&amp;nbsp;Price List&lt;/div&gt;" style="text;html=1;align=left;verticalAlign=middle;resizable=0;points=[];autosize=1;strokeColor=none;fillColor=none;" vertex="1" parent="1">
          <mxGeometry x="250" y="220" width="130" height="60" as="geometry" />
        </mxCell>
        <mxCell id="3zwWWlvh37f6roZIKE7P-19" value="-&amp;nbsp;Transportation Order Details&lt;div&gt;-&amp;nbsp;Profile Information&lt;/div&gt;&lt;div&gt;-&amp;nbsp;&lt;em style=&quot;background-color: initial;&quot;&gt;Feedback and&lt;/em&gt;&lt;span style=&quot;background-color: initial;&quot;&gt;&amp;nbsp;&lt;/span&gt;&lt;em style=&quot;background-color: initial;&quot;&gt;Rating&lt;/em&gt;&lt;/div&gt;" style="text;html=1;align=left;verticalAlign=middle;resizable=0;points=[];autosize=1;strokeColor=none;fillColor=none;" vertex="1" parent="1">
          <mxGeometry x="600" y="440" width="180" height="60" as="geometry" />
        </mxCell>
        <mxCell id="3zwWWlvh37f6roZIKE7P-20" value="&lt;div style=&quot;text-align: left;&quot;&gt;&lt;span style=&quot;background-color: initial;&quot;&gt;-&amp;nbsp;Order Status&lt;/span&gt;&lt;/div&gt;&lt;div style=&quot;text-align: left;&quot;&gt;-&amp;nbsp;Profile Data&lt;/div&gt;&lt;div style=&quot;text-align: left;&quot;&gt;- Order History&lt;br&gt;&lt;/div&gt;" style="text;html=1;align=center;verticalAlign=middle;resizable=0;points=[];autosize=1;strokeColor=none;fillColor=none;" vertex="1" parent="1">
          <mxGeometry x="550" y="343" width="100" height="60" as="geometry" />
        </mxCell>
        <mxCell id="3zwWWlvh37f6roZIKE7P-21" value="- Blog Management&lt;div&gt;- Order Management&lt;br&gt;&lt;div&gt;-&amp;nbsp;Order Confirmation&lt;/div&gt;&lt;div&gt;-&amp;nbsp;Support Information&lt;/div&gt;&lt;div&gt;- Health Fish Checking&lt;/div&gt;&lt;div&gt;&lt;br&gt;&lt;/div&gt;&lt;/div&gt;" style="text;html=1;align=left;verticalAlign=middle;resizable=0;points=[];autosize=1;strokeColor=none;fillColor=none;" vertex="1" parent="1">
          <mxGeometry x="180" y="313" width="140" height="100" as="geometry" />
        </mxCell>
        <mxCell id="3zwWWlvh37f6roZIKE7P-22" value="-&amp;nbsp;Customer Order Information&lt;div&gt;-&amp;nbsp;Customer Feedback&lt;/div&gt;&lt;div&gt;- Schedules Delivery&amp;nbsp;&lt;/div&gt;" style="text;html=1;align=left;verticalAlign=middle;resizable=0;points=[];autosize=1;strokeColor=none;fillColor=none;" vertex="1" parent="1">
          <mxGeometry x="130" y="440" width="180" height="60" as="geometry" />
        </mxCell>
        <mxCell id="3zwWWlvh37f6roZIKE7P-23" value="- Delivery Confirmation&lt;div&gt;&lt;br&gt;&lt;/div&gt;" style="text;html=1;align=center;verticalAlign=middle;resizable=0;points=[];autosize=1;strokeColor=none;fillColor=none;" vertex="1" parent="1">
          <mxGeometry x="90" y="565" width="150" height="40" as="geometry" />
        </mxCell>
        <mxCell id="3zwWWlvh37f6roZIKE7P-24" value="-&lt;span style=&quot;background-color: initial;&quot;&gt;&amp;nbsp;Schedules Delivery&lt;/span&gt;&lt;div&gt;&lt;span style=&quot;background-color: initial;&quot;&gt;- Delivery Reports&lt;/span&gt;&lt;/div&gt;" style="text;html=1;align=left;verticalAlign=middle;resizable=0;points=[];autosize=1;strokeColor=none;fillColor=none;" vertex="1" parent="1">
          <mxGeometry x="270" y="605" width="130" height="40" as="geometry" />
        </mxCell>
        <mxCell id="3zwWWlvh37f6roZIKE7P-25" value="- Management Information System Reports" style="text;html=1;align=center;verticalAlign=middle;resizable=0;points=[];autosize=1;strokeColor=none;fillColor=none;" vertex="1" parent="1">
          <mxGeometry x="640" y="605" width="250" height="30" as="geometry" />
        </mxCell>
        <mxCell id="3zwWWlvh37f6roZIKE7P-26" value="- System Configuration Data" style="text;html=1;align=center;verticalAlign=middle;resizable=0;points=[];autosize=1;strokeColor=none;fillColor=none;" vertex="1" parent="1">
          <mxGeometry x="414" y="640" width="170" height="30" as="geometry" />
        </mxCell>
      </root>
    </mxGraphModel>
  </diagram>
</mxfile>
